Coordinates
version=1
nRows=22
nColumns=24
inDegrees=yes

Units are S.I. units (second, meters, Newtons, ...)
Angles are in degrees.

endheader
time	pelvis_tilt	pelvis_list	pelvis_rotation	pelvis_tx	pelvis_ty	pelvis_tz	hip_flexion_r	hip_adduction_r	hip_rotation_r	knee_angle_r	ankle_angle_r	subtalar_angle_r	mtp_angle_r	hip_flexion_l	hip_adduction_l	hip_rotation_l	knee_angle_l	ankle_angle_l	subtalar_angle_l	mtp_angle_l	lumbar_extension	lumbar_bending	lumbar_rotation
      4.68500000	    -17.59196723	      2.90283658	     -7.62758299	     -1.10703995	     -0.03843124	     -0.36181672	      0.43877621	     -2.95800527	      2.12098941	    -20.58829378	      4.84869203	     -3.23636761	     -0.16441257	     44.52450199	     -5.69543916	    -19.05929518	    -18.19744007	     -2.58347601	      3.79916180	     19.64494565	     20.96479925	     -2.87200256	     -2.26260720
      4.69000000	    -17.61000202	      3.17659019	     -7.56209492	     -1.09899764	     -0.03973978	     -0.36275420	      0.39374863	     -3.40669704	      2.07563292	    -21.30504434	      4.24147385	     -3.20293348	      0.28217793	     44.69954138	     -5.37520753	    -18.70076129	    -19.08123199	     -3.44955760	      3.01524811	     19.53491896	     21.19435934	     -3.18072267	     -2.29124308
      4.69500000	    -17.64820974	      3.38513904	     -7.41987537	     -1.09108569	     -0.04108359	     -0.36400144	      0.45869983	     -3.84208930	      1.68234162	    -22.14924028	      3.53973181	     -2.96671615	      1.50533648	     44.94567792	     -5.01359918	    -18.04050897	    -20.04725143	     -4.31396590	      2.01468780	     19.31908305	     21.40274681	     -3.42349286	     -2.46350951
      4.70000000	    -17.70770078	      3.71469573	     -7.26472019	     -1.08294085	     -0.04232050	     -0.36514181	      0.54998132	     -4.37762752	      1.44070973	    -22.96510384	      2.64321413	     -3.04661479	      3.01633588	     45.19108804	     -4.54138683	    -17.46682910	    -21.04011007	     -5.14273663	      1.04525129	     18.77785289	     21.69865806	     -3.80349019	     -2.62712783
      4.70500000	    -17.72063909	      4.00883732	     -7.18996367	     -1.07497125	     -0.04345520	     -0.36626525	      0.71417730	     -4.87827374	      1.24312542	    -23.97283308	      1.71064299	     -3.05763286	      3.88456283	     45.39788995	     -4.11602251	    -16.76361121	    -22.08350105	     -5.81267818	     -0.08699804	     18.15105970	     21.91513748	     -4.11223426	     -2.66718161
      4.71000000	    -17.77419700	      4.32235816	     -7.02864103	     -1.06691709	     -0.04457028	     -0.36753683	      0.94878805	     -5.41679960	      0.91469910	    -25.01737410	      0.64265355	     -3.07293036	      5.06720939	     45.66968468	     -3.59570951	    -16.00056253	    -23.18874746	     -6.37508014	     -1.24053150	     17.20520838	     22.18768244	     -4.45959329	     -2.79488639
      4.71500000	    -17.79459284	      4.70666682	     -6.86542179	     -1.05872761	     -0.04553043	     -0.36873002	      1.16924184	     -6.02877578	      0.62265617	    -26.00711008	     -0.74233042	     -3.48291002	      7.53504466	     45.88755692	     -3.01141964	    -15.32063240	    -24.35968207	     -6.60284599	     -2.00157183	     15.39879772	     22.46150850	     -4.89259782	     -2.88008364
      4.72000000	    -17.83558236	      5.02383442	     -6.65189747	     -1.05070286	     -0.04650016	     -0.37010010	      1.51142533	     -6.58880261	      0.21255064	    -27.23381384	     -2.03411661	     -3.51917671	      8.47330606	     46.14213043	     -2.42284219	    -14.60786820	    -25.49164770	     -6.88986485	     -3.17578301	     14.39951452	     22.71393891	     -5.26326681	     -3.08460076
      4.72500000	    -17.87327236	      5.37498910	     -6.44396251	     -1.04265515	     -0.04740416	     -0.37148765	      1.91236315	     -7.19653495	     -0.20122199	    -28.50231077	     -3.52913608	     -3.77540000	     10.11475606	     46.36844497	     -1.78959526	    -13.91473408	    -26.65002883	     -6.86649316	     -4.12551064	     12.74736681	     22.97315201	     -5.65820935	     -3.22507499
      4.73000000	    -17.83805841	      5.75073034	     -6.30496108	     -1.03463052	     -0.04813679	     -0.37273435	      2.29663524	     -7.81061521	     -0.42859122	    -29.79726650	     -5.20597312	     -4.30334485	     12.09751584	     46.45956826	     -1.16770320	    -13.28793368	    -27.76596861	     -6.55032662	     -4.82462302	     10.86790432	     23.16444497	     -6.06568418	     -3.23530385
      4.73500000	    -17.78672969	      6.09365212	     -6.17140435	     -1.02676109	     -0.04880062	     -0.37400192	      2.75321492	     -8.39544032	     -0.66192085	    -31.21865720	     -6.95546729	     -4.82704616	     13.72218174	     46.51519331	     -0.58328956	    -12.81021206	    -28.83882659	     -6.18378245	     -5.55612303	      9.29721646	     23.30789766	     -6.43529682	     -3.27603343
      4.74000000	    -17.78666508	      6.44654549	     -5.98940080	     -1.01887636	     -0.04946600	     -0.37534197	      3.31563996	     -9.00069142	     -0.95035879	    -32.72637263	     -8.75387972	     -5.30570081	     14.98740059	     46.57881879	      0.03415038	    -12.43337738	    -29.82671827	     -5.75482214	     -6.26086969	      8.00390425	     23.50650541	     -6.82237135	     -3.38212173
      4.74500000	    -17.73821553	      6.78906184	     -5.87614552	     -1.01122270	     -0.05002593	     -0.37656910	      3.92726595	     -9.56745964	     -1.07372698	    -34.32844502	    -10.60170526	     -5.99500122	     16.27177567	     46.54785120	      0.59554510	    -12.14042358	    -30.74855925	     -5.19472913	     -6.82228026	      6.74080542	     23.62221798	     -7.18270563	     -3.37789561
      4.75000000	    -17.67939733	      7.12927436	     -5.79322300	     -1.00361710	     -0.05046794	     -0.37771333	      4.58363437	    -10.10759613	     -1.08840409	    -35.96961405	    -12.51509605	     -6.76518155	     17.34447739	     46.43987433	      1.11765645	    -11.98074022	    -31.56214423	     -4.57000749	     -7.26400012	      5.76192644	     23.72788077	     -7.53110827	     -3.34559897
      4.75500000	    -17.56249249	      7.50277581	     -5.67129732	     -0.99597984	     -0.05078350	     -0.37877618	      5.20854400	    -10.67020978	     -1.12071139	    -37.68183048	    -14.35506091	     -7.52450195	     17.43960882	     46.18136508	      1.67600864	    -11.95123928	    -32.18793708	     -3.96372194	     -7.65931912	      5.64259786	     23.77856568	     -7.94711226	     -3.37457959
      4.76000000	    -17.62910621	      7.81405551	     -5.61812816	     -0.98857015	     -0.05123728	     -0.37985796	      6.11925242	    -11.12631330	     -0.97633881	    -39.39645116	    -16.25131657	     -8.51739154	     18.91642499	     46.12153835	      2.09545422	    -12.00380014	    -32.88675812	     -3.10238465	     -7.69353224	      4.56632148	     23.99560116	     -8.23482802	     -3.30832697
      4.76500000	    -17.48520390	      8.17778080	     -5.50140249	     -0.98125177	     -0.05141108	     -0.38092897	      6.82855698	    -11.64989776	     -0.92103366	    -41.19387285	    -17.93412742	     -9.41135211	     18.94624905	     45.75121205	      2.64256744	    -12.06304655	    -33.34271297	     -2.46607900	     -7.97554506	      4.56388480	     23.96606776	     -8.64018830	     -3.31326186
      4.77000000	    -17.40708514	      8.52809349	     -5.45107602	     -0.97407630	     -0.05155966	     -0.38182109	      7.68108384	    -12.09978196	     -0.71509196	    -43.01374405	    -19.53802918	    -10.43497340	     19.06111138	     45.41082930	      3.09054459	    -12.24688041	    -33.74029264	     -1.78182321	     -8.08502045	      4.56420479	     23.99989766	     -9.00670720	     -3.27087775
      4.77500000	    -17.48909343	      8.78599086	     -5.46847384	     -0.96711229	     -0.05179739	     -0.38263106	      8.77429055	    -12.37367266	     -0.31116853	    -44.82443578	    -21.07433817	    -11.53915652	     19.80340178	     45.23286592	      3.34536508	    -12.54239720	    -34.15856447	     -0.95646086	     -7.84425714	      4.40900643	     24.17406811	     -9.22402522	     -3.15035361
      4.78000000	    -17.38276890	      9.11875854	     -5.40725574	     -0.96014397	     -0.05176248	     -0.38352589	      9.65428684	    -12.75811124	     -0.04608259	    -46.62499070	    -22.34134649	    -12.58670608	     19.84385327	     44.78057714	      3.79121520	    -12.76914777	    -34.38895481	     -0.29368700	     -7.86672406	      4.50586626	     24.14117079	     -9.57356891	     -3.12671331
      4.78500000	    -17.35988195	      9.39313687	     -5.44550241	     -0.95338965	     -0.05169551	     -0.38416719	     10.70258066	    -12.98220326	      0.42932848	    -48.42658611	    -23.44463291	    -13.64099689	     19.92597844	     44.39370247	      4.06544513	    -13.09555920	    -34.58842783	      0.39173932	     -7.67526675	      4.68869188	     24.18321413	     -9.83378121	     -3.02211727
      4.79000000	    -17.35186094	      9.66245658	     -5.44560266	     -0.94667383	     -0.05158070	     -0.38485423	     11.76990596	    -13.19028127	      0.85768920	    -50.19173994	    -24.26535686	    -14.63716242	     19.96458738	     43.98278092	      4.36868638	    -13.39777713	    -34.70574895	      1.06894623	     -7.45822424	      4.90743159	     24.23068465	    -10.09615355	     -2.96352405
